<svg width="224" height="58" viewBox="0 0 224 58" fill="none" xmlns="http://www.w3.org/2000/svg">
<path d="M12.8182 50.6794C15.3703 49.7224 15.6563 36.2522 15.8127 35.0827C17.0652 25.7224 19.0947 15.5524 17.8715 6.07294C16.8567 -1.79186 10.6457 4.0596 7.45293 6.88396C1.45395 12.1907 1.32352 16.4297 2.27484 24.0403C2.99031 29.7641 3.29094 37.5497 6.08042 42.8187C13.3835 56.6134 39.3035 16.1937 41.6408 11.6253C48.3375 -1.46365 29.1255 40.8003 33.2186 54.9217C34.579 59.6149 45.4998 49.7917 46.0079 49.4317C53.1846 44.3467 60.625 39.8782 67.968 35.0827C69.9663 33.7777 59.0105 38.2743 61.355 37.8278C90.072 32.3579 119.351 28.4031 148.572 27.1596C158.415 26.7408 129.226 31.6949 120.373 36.0185C117.4 37.4704 112.284 40.1108 110.765 43.4426C108.37 48.6974 122.333 46.6239 122.993 46.5619C132.66 45.6544 142.319 44.2359 151.94 42.9435C154.313 42.6248 156.69 42.3321 159.053 41.9453C160.637 41.6859 164.277 42.0587 163.669 40.5728C162.293 37.2091 132.766 34.7758 152.44 30.4037C175.369 25.3083 198.381 24.8513 221.689 24.8513" stroke="black" stroke-width="3" stroke-linecap="round"/>
</svg>
